<svg width="359" height="90" viewBox="0 0 359 90" fill="none" xmlns="http://www.w3.org/2000/svg">
<path d="M10.6868 59.4395C14.4919 69.5418 22.5981 77.5893 32.8194 81.4865V59.4395H10.6868Z" fill="#005BAC"/>
<path d="M82.7216 33.1821C78.7545 22.8267 70.2638 14.6375 59.6073 10.9326V33.1821H82.7216Z" fill="#005BAC"/>
<path d="M32.8194 11.3066C22.6588 15.1836 14.5931 23.1602 10.7576 33.1714H32.8194V11.3066Z" fill="#005BAC"/>
<path d="M59.6073 10.9324V0H32.8195V11.3069C37.1407 9.66708 41.8263 8.74592 46.7346 8.74592C51.2481 8.74592 55.5795 9.51524 59.5972 10.9223L59.6073 10.9324Z" fill="#005BAC"/>
<path d="M82.7924 59.4406H92.0726V33.1826H82.7216C82.7216 33.1826 83.4199 56.3836 59.6073 59.4406C59.6073 59.4406 39.4785 60.1897 32.8195 81.4876V90.0008H59.6073V81.8824C70.3245 78.1472 78.8557 69.8871 82.7924 59.4508V59.4406Z" fill="#005BAC"/>
<path d="M10.7577 33.181H0V59.439H10.6868C9.14856 55.3799 8.31871 50.9765 8.31871 46.391C8.31871 41.8055 9.18904 37.2807 10.7678 33.1709L10.7577 33.181Z" fill="#005BAC"/>
<path d="M14.4621 21.7433C14.5633 21.6219 14.6342 21.5105 14.6646 21.4194C14.6949 21.3081 14.6646 21.217 14.5633 21.1259L12.4173 19.2329C12.3465 19.1621 12.2655 19.1418 12.1946 19.1621C12.0934 19.1823 11.9821 19.2633 11.8404 19.4151L11.729 19.324L13.1057 17.7652C13.3284 17.5222 13.5814 17.3501 13.8649 17.2793C14.1787 17.1983 14.452 17.2489 14.6646 17.4412C14.9176 17.6639 15.029 17.9372 14.9986 18.2409C14.9784 18.5244 14.8366 18.8078 14.5836 19.1013L13.9256 19.8605L14.9379 20.7513C15.029 20.8323 15.1201 20.8525 15.2112 20.8222C15.2922 20.7918 15.4136 20.7007 15.5452 20.5388L15.6464 20.6299L14.5836 21.8446L14.4823 21.7535L14.4621 21.7433ZM14.4216 19.0406C14.5836 18.8483 14.6443 18.6357 14.6139 18.4029C14.5836 18.2004 14.4823 18.0182 14.3204 17.8765C14.1483 17.7348 13.9459 17.6639 13.7333 17.6639C13.4903 17.6741 13.2778 17.7854 13.0854 17.9879L12.7716 18.3523C12.7008 18.4332 12.6603 18.5142 12.6603 18.5851C12.6502 18.6863 12.6907 18.7673 12.7818 18.8483L13.8143 19.7492L14.4419 19.0406H14.4216Z" fill="#005BAC"/>
<path d="M16.7998 14.7889C17.2755 14.8497 17.7007 15.0724 18.055 15.4469C18.4194 15.8214 18.6218 16.2466 18.6623 16.7325C18.7129 17.2588 18.5307 17.7245 18.1258 18.1193C17.7209 18.514 17.235 18.676 16.7087 18.6153C16.2329 18.5545 15.8179 18.342 15.4535 17.9674C15.089 17.5929 14.8967 17.1576 14.8461 16.6717C14.8056 16.1352 14.9878 15.6696 15.3927 15.2748C15.7976 14.88 16.2633 14.7282 16.7998 14.7991V14.7889ZM15.2105 16.449C15.3117 16.8236 15.5243 17.188 15.8685 17.5423C16.2126 17.9067 16.5669 18.1294 16.9415 18.2509C17.3666 18.3723 17.731 18.3015 18.0145 18.0282C18.308 17.7447 18.3991 17.3904 18.2878 16.9552C18.1967 16.5806 17.974 16.2061 17.6298 15.8518C17.2856 15.4975 16.9314 15.2647 16.5568 15.1533C16.1215 15.0319 15.7673 15.1027 15.4737 15.3862C15.1801 15.6696 15.089 16.0239 15.2004 16.449H15.2105Z" fill="#005BAC"/>
<path d="M19.1982 16.7536C19.3702 16.622 19.4714 16.5207 19.5018 16.46C19.5422 16.3689 19.5119 16.2575 19.4107 16.1361L17.7105 14.0103C17.6194 13.899 17.5283 13.8382 17.4271 13.8382C17.3158 13.8382 17.1741 13.899 17.0122 14.0205L16.9211 13.9091L18.1963 12.8867L18.2772 12.9981C18.1457 13.1094 18.0546 13.2106 18.004 13.3119C17.9635 13.4232 17.9838 13.5244 18.0546 13.6155L18.8541 14.6177L20.2608 13.4941L19.4815 12.5122C19.4006 12.411 19.2994 12.3705 19.1779 12.3806C19.0565 12.3806 18.935 12.4413 18.8136 12.5426L18.7326 12.4312L20.0078 11.4189L20.0887 11.5202C19.9673 11.6214 19.8762 11.7226 19.8357 11.834C19.7851 11.9453 19.7952 12.0567 19.8661 12.1376L21.6169 14.3343C21.7079 14.4456 21.8091 14.4861 21.9306 14.4658C22.0014 14.4456 22.1229 14.3747 22.2747 14.2533L22.3658 14.3747L21.0704 15.3971L20.9793 15.2757L21.0097 15.2554C21.1412 15.1441 21.2323 15.0631 21.2627 15.0023C21.3133 14.9011 21.3031 14.81 21.2222 14.6987L20.3519 13.6155L18.9452 14.7392L19.7649 15.7717C19.8762 15.9033 19.9774 15.964 20.0786 15.9437C20.1596 15.9235 20.2709 15.8526 20.4328 15.7109L20.534 15.8324L19.2488 16.8548L19.1577 16.7333L19.1982 16.7536Z" fill="#005BAC"/>
<path d="M21.9914 10.031L21.6675 10.3954L22.3761 13.5739C22.4368 13.7966 22.4469 13.9687 22.3963 14.0901C22.3558 14.1914 22.2647 14.2926 22.1129 14.3837L22.204 14.5153L23.3073 13.7966L23.2264 13.6751C23.0745 13.7763 22.9429 13.8168 22.8215 13.7966C22.6899 13.7763 22.5988 13.6852 22.5583 13.5233L22.3963 12.7843L23.6718 11.9543L24.4107 12.4908C24.5322 12.5819 24.5625 12.673 24.5018 12.7641C24.4613 12.8349 24.3601 12.9159 24.2083 13.0172L24.2892 13.1487L25.6254 12.2782L25.5444 12.1466L25.5039 12.1669C25.4027 12.2377 25.3319 12.2782 25.2711 12.2883C25.18 12.3086 25.0788 12.2883 24.9776 12.2175L21.9914 10.0107V10.031ZM21.8497 10.5675L23.53 11.8531L22.3558 12.6224L21.8497 10.5675Z" fill="#005BAC"/>
<path d="M25.3001 12.3192C25.4722 12.2281 25.5835 12.1471 25.6442 12.056C25.7252 11.9548 25.7252 11.8232 25.6442 11.6815L24.359 9.26218C24.3084 9.15083 24.2375 9.0901 24.1464 9.06985C24.025 9.03948 23.8631 9.07997 23.6404 9.19132L23.5898 9.07997L24.4703 8.60421L27.8504 10.1935L26.6562 7.94624C26.6056 7.85514 26.5348 7.81465 26.4437 7.80453C26.3425 7.7944 26.2008 7.83489 26.0288 7.926L25.9782 7.82477L27.0914 7.22754L27.142 7.33889C27.0104 7.40975 26.8991 7.50085 26.8384 7.59195C26.7777 7.69318 26.7676 7.78428 26.8182 7.87539L28.3969 10.8616L28.2754 10.9223L24.5209 9.16095L25.796 11.5803C25.8669 11.7118 25.9681 11.7827 26.0996 11.7928C26.2211 11.7928 26.3627 11.7523 26.5449 11.6612L26.6056 11.7827L25.3609 12.4407L25.3001 12.3192Z" fill="#005BAC"/>
<path d="M31.606 7.84534C31.4339 7.91619 31.3226 7.99717 31.272 8.06803C31.2315 8.12877 31.2315 8.20975 31.272 8.30085L31.7376 9.42446L31.6364 9.46495L31.2112 9.31311C31.1303 9.4852 31.0493 9.62691 30.9683 9.70789C30.8468 9.82937 30.6545 9.94071 30.3711 10.0622C29.8852 10.2646 29.4195 10.2646 28.9742 10.0622C28.5389 9.84961 28.215 9.4852 27.9923 8.96894C27.7797 8.46281 27.7493 7.96681 27.891 7.49105C28.053 6.98492 28.3769 6.6205 28.8831 6.41805C28.9944 6.36744 29.1057 6.33707 29.2272 6.3067C29.2981 6.29658 29.3791 6.28646 29.4904 6.27633C29.6119 6.26621 29.6929 6.24597 29.7333 6.22572C29.7941 6.18523 29.8346 6.11437 29.8649 6.00302L29.9864 5.97266L30.6747 6.72173L30.5634 6.82295L30.5229 6.80271C30.2698 6.64075 30.0471 6.51928 29.8649 6.46866C29.5511 6.38768 29.2475 6.39781 28.9539 6.51928C28.5693 6.68124 28.3364 6.97479 28.2757 7.38982C28.215 7.76436 28.2959 8.1895 28.4984 8.67539C28.7515 9.27262 29.045 9.67753 29.3791 9.8901C29.6726 10.0824 29.9763 10.1027 30.3002 9.96096C30.5432 9.85973 30.7355 9.73826 30.8671 9.59654C31.0392 9.41434 31.0999 9.22201 31.0493 9.01956L30.8367 8.5033C30.7962 8.42232 30.7355 8.37171 30.6241 8.37171C30.5128 8.36159 30.3711 8.39196 30.2091 8.46281L30.1484 8.3211L31.5453 7.73399L31.606 7.8757V7.84534Z" fill="#005BAC"/>
<path d="M34.9952 7.84502C35.1673 7.81465 35.2887 7.76404 35.3595 7.69318C35.4506 7.6122 35.481 7.49073 35.4506 7.34901L34.9041 4.63616C34.8738 4.48432 34.8131 4.40334 34.722 4.37297C34.641 4.35272 34.4993 4.37297 34.2767 4.41346L34.2463 4.27174L35.481 4.01868L37.2216 6.78215L37.6872 3.58341L38.8813 3.35059L38.9117 3.4923C38.7498 3.51255 38.6283 3.54292 38.5474 3.60365C38.4664 3.66439 38.4259 3.73524 38.4462 3.82635L39.023 6.71129C39.0534 6.83276 39.1141 6.90362 39.2254 6.92386C39.3064 6.95423 39.4481 6.94411 39.6302 6.92386L39.6606 7.06558L38.0616 7.3895L38.0313 7.25791C38.1831 7.22754 38.3045 7.18705 38.3855 7.12631C38.4968 7.04533 38.5373 6.95423 38.5069 6.82264L37.8896 3.74537H37.8288L37.2824 7.59195L37.1002 7.63244L35.0863 4.39321H35.0357L35.6227 7.34901C35.653 7.49073 35.7239 7.59195 35.8453 7.64257C35.9465 7.68306 36.0882 7.68306 36.2704 7.64257L36.3007 7.75392L35.0256 8.0171L34.9952 7.88551V7.84502Z" fill="white"/>
<path d="M39.4483 7.10551L42.4445 6.79171L42.7786 5.81994L42.6672 5.77945C42.4445 6.10337 42.232 6.33619 42.0498 6.47791C41.8473 6.62975 41.5943 6.73097 41.3209 6.76134L40.997 6.79171C40.8047 6.81195 40.6731 6.80183 40.6124 6.76134C40.5415 6.72085 40.4909 6.62975 40.4808 6.47791L40.339 5.14173L40.9464 5.08099C41.1489 5.06075 41.3108 5.10124 41.412 5.19234C41.5133 5.28344 41.5943 5.45553 41.6449 5.69847L41.7765 5.67822L41.6246 4.15984H41.4829C41.4829 4.43315 41.4323 4.61535 41.3513 4.71658C41.2703 4.82793 41.1286 4.88866 40.916 4.90891L40.3188 4.96964L40.1771 3.66383C40.167 3.54236 40.2075 3.44113 40.3087 3.3804C40.3998 3.32978 40.5314 3.29941 40.7237 3.26905C41.1185 3.22856 41.4424 3.26905 41.7056 3.3804C41.8473 3.44113 42.0194 3.57272 42.2117 3.76505L42.3838 3.92702L42.4749 3.8764L42.0194 3.00586L39.0636 3.31966V3.45125C39.2964 3.42089 39.4483 3.44113 39.5292 3.48162C39.6001 3.52211 39.6406 3.61322 39.6507 3.74481L39.9443 6.53865C39.9544 6.67024 39.9139 6.78159 39.8127 6.85245C39.7317 6.90306 39.6102 6.94355 39.4381 6.96379L39.4584 7.09539L39.4483 7.10551Z" fill="white"/>
<path d="M42.6563 6.59993C42.8385 6.59993 42.9701 6.56956 43.0511 6.52907C43.1422 6.47846 43.1827 6.38735 43.1827 6.25576L43.1118 3.43155C43.1118 3.31008 43.0713 3.21898 43.0005 3.17849C42.9195 3.11775 42.7778 3.09751 42.5652 3.10763V2.97604L44.5087 2.93555C44.7011 2.93555 44.8934 2.95579 45.0958 3.02665C45.3084 3.09751 45.5007 3.20886 45.6728 3.34045C45.8652 3.49229 46.0069 3.68462 46.1283 3.91744C46.2498 4.1705 46.3207 4.46406 46.3207 4.77786C46.3308 5.37509 46.1486 5.86098 45.7639 6.22539C45.4299 6.53919 45.0452 6.71128 44.5998 6.71128L42.6462 6.76189V6.62017L42.6563 6.59993ZM43.8103 6.47846C43.8609 6.52907 43.952 6.54931 44.0836 6.54931H44.5391C44.9744 6.4987 45.2882 6.32662 45.4805 6.02294C45.6728 5.72938 45.7639 5.28399 45.7437 4.69688C45.7336 4.13001 45.602 3.70486 45.3489 3.44168C45.1161 3.18861 44.7719 3.05702 44.3164 3.05702H44.0532C43.9014 3.06714 43.79 3.09751 43.7293 3.14812C43.6685 3.19873 43.6382 3.28984 43.6483 3.40119L43.7192 6.21527C43.7192 6.33674 43.7495 6.42784 43.8204 6.48858L43.8103 6.47846Z" fill="white"/>
<path d="M46.4919 2.88512V3.01672C46.7146 3.01672 46.8665 3.05721 46.9373 3.11794C46.9981 3.15843 47.0284 3.25966 47.0183 3.39125L46.907 6.24582C46.907 6.3673 46.8361 6.43815 46.7247 6.47864C46.6336 6.50901 46.5122 6.52926 46.3401 6.51913V6.67097L48.0002 6.73171V6.60012C47.8079 6.60012 47.6661 6.56975 47.5852 6.51913C47.4738 6.46852 47.4232 6.37742 47.4333 6.25595L47.5346 3.42162C47.5346 3.30015 47.5953 3.20905 47.7066 3.14831C47.8079 3.0977 47.9496 3.07745 48.1318 3.07745V2.93574L46.4818 2.875L46.4919 2.88512Z" fill="white"/>
<path d="M50.7731 6.6911C50.4492 6.90367 50.0544 6.98465 49.5989 6.94416C49.1434 6.90367 48.7891 6.70122 48.5158 6.34693C48.2222 5.95215 48.1007 5.44602 48.1615 4.81842C48.1817 4.61597 48.2323 4.40339 48.3133 4.19082C48.4044 3.958 48.536 3.75555 48.6777 3.58346C48.8498 3.39113 49.0523 3.23929 49.2648 3.13807C49.5179 3.02672 49.7912 2.98623 50.0746 3.0166C50.2062 3.03684 50.3277 3.05709 50.4289 3.08746C50.4897 3.1077 50.5504 3.13807 50.6314 3.17856L50.6921 3.20893C50.7933 3.25954 50.8844 3.27978 50.9553 3.25954C51.0363 3.23929 51.097 3.18868 51.1476 3.1077L51.2691 3.12795L51.5121 4.17057L51.3703 4.20094C51.2286 3.92763 51.0869 3.71506 50.9351 3.56322C50.6921 3.3304 50.4289 3.18868 50.1151 3.15831C49.771 3.12795 49.4673 3.24942 49.2142 3.53285C48.9612 3.8264 48.7992 4.24143 48.7486 4.77793C48.698 5.31443 48.7688 5.7497 48.9814 6.10399C49.1839 6.44816 49.4572 6.64049 49.8013 6.67085C50.0645 6.6911 50.3075 6.66073 50.5403 6.55951C50.8338 6.42791 51.097 6.20521 51.34 5.89141L51.4412 5.96227C51.259 6.27607 51.0363 6.51901 50.7832 6.68098L50.7731 6.6911Z" fill="white"/>
<path d="M54.719 7.24739C54.7392 7.35874 54.7999 7.44984 54.8809 7.49033C54.9315 7.5207 55.0124 7.54094 55.1339 7.56119H55.1744L55.144 7.72315L53.5754 7.42959L53.6058 7.27776C53.7879 7.30812 53.9195 7.31825 54.0004 7.298C54.1016 7.26763 54.1421 7.17653 54.1219 7.03481L53.96 6.1339L52.4622 5.86059L52.0675 6.50844C51.9865 6.66028 51.9865 6.78175 52.0675 6.88297C52.1383 6.97408 52.2598 7.03481 52.4419 7.06518L52.4116 7.21702L51.1162 6.97408L51.1466 6.82224C51.3186 6.85261 51.4603 6.85261 51.5615 6.80199C51.6829 6.75138 51.7943 6.61979 51.9056 6.41733L53.5855 3.6235L54.0713 3.58301L54.7088 7.23726L54.719 7.24739ZM52.5634 5.70875L53.9498 5.96182L53.6159 3.87656L52.5634 5.70875Z" fill="white"/>
<path d="M54.8712 7.68284L57.8473 8.49265L58.4749 7.71321L58.3635 7.6221C58.1509 7.82456 57.8979 7.96627 57.6448 8.05738C57.4019 8.13836 57.169 8.14848 56.9565 8.09787L56.3592 7.9359C56.2276 7.89541 56.1365 7.85492 56.096 7.80431C56.0353 7.74358 56.0353 7.65247 56.0657 7.531L56.8148 4.7979C56.8451 4.67643 56.916 4.60557 57.0273 4.5752C57.1286 4.55496 57.2703 4.5752 57.4626 4.61569L57.5031 4.4841L55.9037 4.04883L55.8734 4.18042C56.096 4.24116 56.2378 4.30189 56.2884 4.38287C56.339 4.44361 56.339 4.53471 56.3086 4.66631L55.5596 7.38928C55.5292 7.50063 55.4381 7.57149 55.3065 7.60186C55.185 7.6221 55.0534 7.60186 54.9117 7.57149L54.8712 7.70308V7.68284Z" fill="white"/>
<path d="M64.1724 9.40338L64.0914 9.31228C63.7776 9.55522 63.4638 9.69694 63.15 9.73743C62.897 9.77792 62.654 9.73743 62.4111 9.65645C62.0871 9.52486 61.8644 9.28191 61.7733 8.89725C61.6721 8.50247 61.7227 8.05708 61.9151 7.55095C62.1074 7.04482 62.3706 6.69053 62.6945 6.46783C63.0083 6.26538 63.3423 6.22489 63.6663 6.34636C63.9598 6.45771 64.1825 6.66016 64.3445 6.95372C64.4457 7.14605 64.5368 7.38899 64.5975 7.68254H64.7393L64.7798 6.62979L64.6785 6.57918C64.6077 6.63992 64.5267 6.68041 64.4457 6.67028C64.3647 6.67028 64.2939 6.61967 64.2129 6.54881L64.1623 6.4982C64.1015 6.43746 64.0408 6.39697 63.9902 6.35648C63.8991 6.30587 63.7979 6.24513 63.6764 6.19452C63.4031 6.08317 63.1298 6.05281 62.8565 6.0933C62.6135 6.13379 62.3908 6.21477 62.1681 6.36661C61.9758 6.4982 61.8037 6.66016 61.6519 6.85249C61.5203 7.02457 61.4089 7.2169 61.3381 7.40923C61.1154 7.99634 61.085 8.52272 61.2672 8.97824C61.4292 9.39326 61.7227 9.67669 62.1479 9.83866C62.573 10.0006 62.9779 10.031 63.3423 9.90951C63.6359 9.82853 63.9092 9.65645 64.1724 9.40338Z" fill="#005BAC"/>
<path d="M63.6248 10.1828C63.7867 10.2536 63.9081 10.2941 63.9992 10.284C64.1207 10.284 64.2117 10.2131 64.2725 10.0917L65.4869 7.56103C65.5476 7.43955 65.5577 7.33833 65.5172 7.26747C65.4666 7.18649 65.3452 7.09539 65.1428 7.00428L65.2035 6.88281L67.8853 8.16838L67.8145 9.15027H67.7032L67.6425 8.92758C67.5817 8.66439 67.5109 8.47206 67.4097 8.33034C67.2579 8.09752 66.9948 7.89507 66.6304 7.72299C66.4584 7.64201 66.3167 7.60152 66.2155 7.59139C66.0941 7.59139 66.0131 7.65213 65.9625 7.76348L65.3958 8.94782L65.9423 9.21101C66.1244 9.30211 66.2864 9.32236 66.4078 9.27174C66.5394 9.22113 66.6709 9.08954 66.8126 8.87696L66.9341 8.9377L66.2762 10.3144L66.1548 10.2536C66.2358 10.0208 66.256 9.83861 66.2155 9.70702C66.175 9.57542 66.0637 9.45395 65.8714 9.36285L65.325 9.09966L64.738 10.3144C64.6773 10.446 64.657 10.5472 64.6975 10.6282C64.738 10.6889 64.8392 10.7699 65.0112 10.8509L65.3148 10.9926C65.5678 11.1141 65.8208 11.1647 66.084 11.1343C66.3167 11.1141 66.6102 11.0128 66.9745 10.861L67.0555 10.9622L66.256 11.6101L63.5438 10.3042L63.6045 10.1828H63.6248Z" fill="#005BAC"/>
<path d="M66.4988 11.5293C66.6607 11.6306 66.8024 11.6812 66.8935 11.6812C67.025 11.6812 67.1363 11.6204 67.2173 11.4889L68.6038 9.12017C68.6645 9.01894 68.6847 8.92784 68.6544 8.83673C68.6139 8.71526 68.4924 8.59379 68.2799 8.47232L68.3406 8.37109L69.2008 8.87722L69.6259 12.5821L70.9111 10.3754C70.9617 10.2944 70.9617 10.2033 70.9111 10.1223C70.8707 10.0312 70.7593 9.92997 70.5873 9.82875L70.648 9.72752L71.7309 10.3652L71.6701 10.4665C71.5285 10.3855 71.407 10.345 71.2957 10.345C71.1743 10.345 71.0832 10.3754 71.0427 10.4665L69.3324 13.3818L69.211 13.3109L68.7353 9.20115L67.3489 11.5597C67.278 11.6812 67.2679 11.8027 67.3489 11.9241C67.3995 12.0355 67.5209 12.1367 67.6828 12.2278L67.612 12.3391L66.3976 11.6306L66.4684 11.5091L66.4988 11.5293Z" fill="#005BAC"/>
<path d="M70.5168 13.9802C70.6686 14.0915 70.8001 14.1624 70.8912 14.1827C71.0127 14.2231 71.1138 14.1827 71.1746 14.1017L72.8849 11.7026C72.9355 11.6216 72.9557 11.5508 72.9355 11.4698C72.9152 11.3888 72.8545 11.3281 72.7735 11.2572C72.5914 11.1256 72.3384 11.0649 72.0348 11.0851C71.8324 11.0953 71.5895 11.1459 71.3061 11.237L71.2454 11.156L72.0854 10.6094L74.6053 12.4011L74.3422 13.4235L74.241 13.383C74.241 13.059 74.2106 12.806 74.16 12.6136C74.0993 12.3201 73.9879 12.1278 73.826 12.0164C73.7248 11.9456 73.6337 11.9051 73.5427 11.9051C73.4516 11.9051 73.3706 11.9354 73.32 12.0063L71.6198 14.4053C71.549 14.4965 71.549 14.5876 71.5996 14.6787C71.6401 14.7495 71.7514 14.8507 71.9235 14.9722L71.8425 15.0836L70.4459 14.0915L70.5269 13.9802H70.5168Z" fill="#005BAC"/>
<path d="M72.5208 15.3964C72.6523 15.5077 72.7636 15.5786 72.8547 15.5988C72.9762 15.6292 73.0774 15.5887 73.1684 15.4774L74.9799 13.3314C75.0609 13.2301 75.1014 13.139 75.0811 13.0581C75.0609 12.967 74.9597 12.8556 74.7877 12.7038L74.8787 12.6025L77.1456 14.5258L76.8319 15.4571L76.7307 15.4267V15.1939C76.7307 14.9307 76.7105 14.7182 76.6599 14.5663C76.5688 14.3031 76.3664 14.0399 76.0628 13.7768C75.911 13.6553 75.7896 13.5743 75.6985 13.5439C75.5871 13.5136 75.4859 13.5439 75.405 13.6452L74.5448 14.6473L75.0103 15.0421C75.1722 15.1737 75.3139 15.2344 75.4455 15.2243C75.5871 15.204 75.7491 15.1129 75.9312 14.9409L76.0425 15.032L75.0508 16.1961L74.9395 16.0948C75.0811 15.8924 75.1419 15.7203 75.1419 15.5786C75.1419 15.4369 75.0609 15.2951 74.899 15.1636L74.4335 14.7688L73.5631 15.7912C73.472 15.9025 73.4316 16.0037 73.4518 16.0847C73.472 16.1556 73.553 16.2568 73.6947 16.3884L73.9578 16.601C74.1703 16.7832 74.4132 16.8945 74.6662 16.935C74.899 16.9755 75.2127 16.9553 75.5973 16.8945L75.6479 17.0059L74.7168 17.431L72.4196 15.4875L72.5106 15.3761L72.5208 15.3964Z" fill="#005BAC"/>
<path d="M74.9694 17.4406C75.0908 17.5621 75.192 17.633 75.2628 17.6735C75.3742 17.7139 75.4652 17.6937 75.5563 17.6026L77.6006 15.5477C77.6815 15.4667 77.7119 15.3756 77.7018 15.2946C77.6815 15.2035 77.6006 15.0922 77.4589 14.9505L77.55 14.8594L79.0073 16.3069C79.2603 16.5701 79.4222 16.8333 79.4728 17.0965C79.5234 17.3799 79.4627 17.6228 79.2704 17.8152C79.068 18.0075 78.8454 18.1087 78.5721 18.0986C78.3798 18.0986 78.1774 18.0277 77.975 17.9265C77.9852 18.0885 77.9447 18.2909 77.8435 18.5238C77.7827 18.6553 77.6815 18.8477 77.5297 19.0906C77.469 19.202 77.4184 19.2829 77.3881 19.3336C77.3476 19.4145 77.3172 19.4753 77.3071 19.5259C77.2869 19.6271 77.3071 19.6879 77.3881 19.7182C77.4791 19.7486 77.6006 19.7283 77.7625 19.6777L77.7929 19.7587C77.6613 19.8599 77.5095 19.9207 77.3577 19.9105C77.2059 19.9105 77.0845 19.8701 76.9833 19.7688C76.9023 19.6879 76.8517 19.6069 76.8112 19.536C76.7707 19.4449 76.7707 19.3437 76.8112 19.2425C76.8416 19.1514 76.8922 19.04 76.963 18.9084C77.0035 18.8274 77.0743 18.6958 77.1755 18.5339C77.3476 18.2403 77.4589 18.0379 77.5095 17.9164C77.5905 17.7038 77.5905 17.5621 77.5095 17.4913L76.9731 16.9548L75.9308 17.9974C75.8599 18.0784 75.8397 18.1695 75.8802 18.2808C75.9105 18.3719 75.9915 18.4833 76.1129 18.6047L76.0117 18.6958L74.8682 17.5621L74.9694 17.4609V17.4406ZM77.6917 17.471C77.8738 17.6431 78.0661 17.7038 78.2786 17.6836C78.481 17.6532 78.6733 17.552 78.8555 17.3698C79.0376 17.1876 79.0984 16.9851 79.0376 16.7725C78.987 16.5802 78.8251 16.3373 78.562 16.0538C78.4304 15.9222 78.3191 15.8413 78.2381 15.821C78.1471 15.7907 78.0661 15.821 77.9851 15.9121L77.0642 16.8333L77.7018 17.471H77.6917Z" fill="#005BAC"/>
<path d="M34.803 85.608C34.9447 85.8509 35.0763 86.0331 35.1877 86.1445C35.38 86.3368 35.6331 86.4886 35.9368 86.5797C36.1594 86.6506 36.3619 86.6405 36.5542 86.5494C36.7769 86.4583 36.9085 86.2761 36.949 86.023C36.9794 85.8003 36.9085 85.6181 36.7364 85.4561C36.6251 85.3549 36.4125 85.2334 36.0886 85.0715C35.7141 84.8791 35.461 84.7172 35.3294 84.5957C35.0966 84.373 35.0055 84.0997 35.0662 83.7859C35.1067 83.5227 35.2282 83.3304 35.4306 83.2089C35.6634 83.0672 35.9671 83.0267 36.3417 83.1077C36.4328 83.1279 36.5239 83.1583 36.615 83.1988C36.6656 83.219 36.7364 83.2494 36.8174 83.2899C36.8984 83.3304 36.949 83.3607 36.9794 83.3709C37.03 83.381 37.0806 83.381 37.1211 83.3709L37.3134 83.2899L37.3742 83.3101L37.4855 84.2515H37.3742C37.2324 83.958 37.1009 83.7555 36.9996 83.6341C36.8275 83.462 36.5846 83.3203 36.2809 83.2292C36.0785 83.1887 35.9064 83.2089 35.7444 83.2899C35.5622 83.3911 35.461 83.5531 35.4205 83.7657C35.4003 83.9479 35.4711 84.1098 35.6432 84.2414C35.7545 84.3224 35.957 84.4439 36.2506 84.5856C36.453 84.6868 36.6048 84.7577 36.6959 84.7982C36.8478 84.8893 36.9794 84.9804 37.0705 85.0715C37.192 85.1828 37.2628 85.3043 37.3033 85.446C37.3539 85.5877 37.3539 85.7598 37.3134 85.9521C37.2426 86.2963 37.0705 86.5291 36.7972 86.6607C36.5644 86.7721 36.291 86.8024 35.9772 86.7316C35.8659 86.7113 35.7444 86.6708 35.6128 86.6101C35.542 86.5696 35.4407 86.5291 35.3092 86.4583L35.1573 86.3773C35.0865 86.357 35.0156 86.3773 34.9549 86.3773C34.9144 86.3975 34.8739 86.4178 34.8233 86.4583H34.8131L34.7524 86.4684L34.5803 85.446L34.6714 85.4258L34.7625 85.5675L34.803 85.608Z" fill="white"/>
<path d="M39.2462 83.7247L39.2259 83.8563C39.0539 83.826 38.9223 83.8361 38.8312 83.8766C38.7299 83.9171 38.6692 83.9879 38.6489 84.0993L38.2339 86.6603C38.2137 86.7716 38.2542 86.8526 38.3453 86.9032C38.4161 86.9539 38.5376 86.9943 38.7198 87.0247L38.6996 87.1462L37.2014 86.9032L37.2217 86.7716C37.3735 86.7919 37.495 86.7919 37.576 86.7716C37.6873 86.7413 37.748 86.6805 37.7683 86.5692L38.1833 83.9879C38.2036 83.8665 38.1934 83.7855 38.1428 83.7349C38.0821 83.6741 37.9505 83.6235 37.748 83.5932L37.7683 83.4717L39.2664 83.7146L39.2462 83.7247Z" fill="white"/>
<path d="M38.8817 87.1667L40.1572 87.2982V87.1768C39.9952 87.1565 39.8636 87.116 39.7725 87.0553C39.6713 86.9743 39.6308 86.8731 39.651 86.7415L39.9243 84.2513L41.8578 87.5209L41.9792 87.5412L42.3133 84.4639C42.3133 84.3829 42.3841 84.3121 42.4752 84.2615C42.5765 84.221 42.6878 84.2109 42.8397 84.221V84.1197L41.7059 83.9882V84.0995C41.878 84.1198 41.9995 84.1602 42.0805 84.221C42.1513 84.2716 42.1817 84.3526 42.1716 84.4336L41.9185 86.7617L40.1774 83.8161L39.2664 83.7148V83.8262C39.4789 83.8566 39.6207 83.9072 39.7016 83.9983C39.7523 84.059 39.7826 84.14 39.7725 84.2513L39.4891 86.7415C39.4688 86.8832 39.4081 86.9743 39.2866 87.0249C39.1955 87.0654 39.0639 87.0654 38.8918 87.0452V87.1768L38.8817 87.1667Z" fill="white"/>
<path d="M45.5919 86.7201L45.5008 86.6594C45.2984 86.9631 45.0655 87.1858 44.8024 87.3072C44.5999 87.4186 44.3671 87.4591 44.1241 87.4591C43.8002 87.4287 43.5472 87.2769 43.3447 86.9732C43.1423 86.6594 43.0512 86.2545 43.0714 85.7686C43.0916 85.2726 43.2131 84.8879 43.4358 84.6045C43.6585 84.3312 43.9217 84.2097 44.2456 84.2198C44.5291 84.2198 44.7922 84.3413 45.0149 84.5438C45.1567 84.6855 45.3085 84.8677 45.4401 85.1106L45.5717 85.0803L45.2984 84.1287H45.187C45.1465 84.1996 45.0858 84.2502 45.0149 84.2705C44.9441 84.2907 44.8631 84.2705 44.772 84.2198L44.7214 84.1996C44.6505 84.1692 44.5898 84.1389 44.5291 84.1287C44.4379 84.0984 44.3266 84.0882 44.2051 84.0781C43.9318 84.0781 43.6889 84.1186 43.4662 84.23C43.2637 84.3312 43.1018 84.4729 42.9499 84.6652C42.8285 84.8373 42.7171 85.0297 42.6361 85.2422C42.5754 85.4346 42.5349 85.6269 42.5248 85.8192C42.4944 86.3962 42.626 86.8618 42.9196 87.206C43.1827 87.5198 43.5269 87.6818 43.9419 87.702C44.357 87.7223 44.7113 87.6312 45.0048 87.4085C45.2376 87.2465 45.43 87.0238 45.5818 86.7201H45.5919Z" fill="white"/>
<path d="M45.6215 87.6928L48.3749 87.6422L48.7595 86.8021L48.6482 86.7514C48.4255 87.0349 48.2129 87.2272 48.0307 87.3487C47.8283 87.4803 47.6056 87.5511 47.3424 87.5511H47.0387C46.8565 87.5511 46.7451 87.5511 46.6844 87.5005C46.6237 87.4499 46.5933 87.3689 46.5832 87.2373L46.5629 86.0024H47.1298C47.312 85.9821 47.4537 86.0327 47.5448 86.134C47.6258 86.2251 47.6865 86.387 47.7169 86.6097H47.8485L47.8283 85.2229H47.6967C47.6764 85.4558 47.6157 85.6177 47.5347 85.7088C47.4537 85.7999 47.312 85.8505 47.1197 85.8505H46.5629L46.5427 84.646C46.5427 84.5346 46.5832 84.4536 46.6844 84.403C46.7654 84.3625 46.897 84.3423 47.0792 84.3423C47.4436 84.3423 47.7371 84.3929 47.9598 84.5144C48.0914 84.5953 48.2332 84.7168 48.3951 84.9091L48.5368 85.061L48.6279 85.0205L48.2838 84.1904L45.5608 84.241V84.3625C45.7734 84.3625 45.905 84.3828 45.9758 84.4233C46.0366 84.4637 46.0669 84.5447 46.0669 84.6662L46.1175 87.2272C46.1175 87.3588 46.0669 87.4398 45.9758 87.5005C45.8948 87.541 45.7835 87.5613 45.6215 87.5714V87.6928Z" fill="white"/>
<path d="M49.6494 87.5614L51.3804 87.4096V87.3083C51.1374 87.3286 50.9755 87.3083 50.8742 87.278C50.7629 87.2375 50.7022 87.1666 50.692 87.0553L50.4187 83.978L50.358 83.9375C50.2568 84.0387 50.1049 84.1197 49.9227 84.2007C49.7506 84.2715 49.5684 84.3323 49.366 84.3829L49.4065 84.4841C49.6798 84.4436 49.862 84.4335 49.9531 84.474C50.0138 84.5044 50.0543 84.555 50.0543 84.6562L50.2669 87.0958C50.277 87.2172 50.2365 87.3083 50.1353 87.3589C50.0442 87.4096 49.8721 87.4399 49.619 87.4703L49.6393 87.5715L49.6494 87.5614Z" fill="white"/>
<path d="M53.0703 85.4457V85.4761C53.1412 85.9923 53.1108 86.3972 52.9995 86.711C52.8982 87.0248 52.7261 87.1868 52.5136 87.2172C52.3617 87.2374 52.2605 87.2172 52.1896 87.1666C52.1593 87.1362 52.1289 87.0653 52.1087 86.9641L52.0884 86.8528C52.0682 86.792 52.0277 86.7313 51.9669 86.7009C51.9163 86.6807 51.8556 86.6705 51.7949 86.6908C51.7341 86.7009 51.6734 86.7313 51.643 86.792C51.6025 86.8426 51.5924 86.9034 51.6127 86.9844C51.6329 87.1261 51.7341 87.2273 51.886 87.3083C52.0277 87.369 52.1896 87.3893 52.3617 87.369C52.7261 87.3184 53.0197 87.1261 53.2525 86.8021C53.5056 86.4276 53.5866 85.9822 53.5258 85.4558C53.4347 84.7877 53.2728 84.312 53.0197 84.0387C52.797 83.7957 52.5034 83.6945 52.139 83.7451C51.8151 83.7957 51.562 83.9375 51.39 84.1804C51.228 84.4233 51.1571 84.7068 51.2078 85.0307C51.2584 85.3749 51.3798 85.638 51.5823 85.8101C51.7645 85.962 51.967 86.0227 52.1998 86.0025C52.382 85.9721 52.5439 85.9215 52.6857 85.8304C52.8476 85.7393 52.9691 85.6178 53.0703 85.4558V85.4457ZM52.0985 83.8868H52.139C52.4225 83.8362 52.6452 83.9881 52.8071 84.312C52.9084 84.5246 52.9893 84.8181 53.0501 85.2028C52.9995 85.3546 52.9083 85.4862 52.7666 85.5976C52.635 85.6988 52.5034 85.7595 52.3719 85.7798C52.1492 85.8 51.9872 85.7393 51.8657 85.5773C51.7645 85.4457 51.6936 85.2331 51.6531 84.9295C51.6127 84.6157 51.6329 84.3525 51.7038 84.1703C51.7847 83.9881 51.9163 83.897 52.0985 83.8767V83.8868Z" fill="white"/>
<path d="M54.3861 85.2129L54.4266 85.1927C54.7201 85.1522 54.9529 85.1927 55.1351 85.3344C55.287 85.4559 55.3882 85.6381 55.4388 85.8912C55.4996 86.2151 55.4692 86.458 55.3376 86.5997C55.2262 86.7313 55.0036 86.8224 54.6695 86.8832C54.4772 86.9237 54.3557 86.8832 54.2848 86.7819C54.2444 86.7313 54.2342 86.6301 54.2241 86.4884V86.3973C54.2039 86.3163 54.1735 86.2454 54.1026 86.205C54.052 86.1645 53.9913 86.1645 53.9306 86.1746C53.8597 86.1847 53.8091 86.2151 53.7686 86.2657C53.7281 86.3264 53.718 86.3872 53.7281 86.458C53.7686 86.6706 53.8799 86.8224 54.0824 86.9237C54.2646 87.0148 54.4772 87.035 54.71 86.9945C55.125 86.9135 55.4388 86.7819 55.6413 86.5694C55.8538 86.3669 55.9247 86.124 55.8741 85.8405C55.8235 85.5875 55.7223 85.4053 55.5603 85.2737C55.368 85.1218 55.0845 85.051 54.7201 85.0611C54.9529 84.97 55.1351 84.8384 55.2769 84.6663C55.4287 84.4841 55.4793 84.2715 55.4388 84.0691C55.3983 83.8261 55.2769 83.6338 55.0845 83.5123C54.8821 83.3909 54.6391 83.3605 54.3456 83.4111C54.0318 83.4617 53.799 83.5731 53.6269 83.7148C53.4649 83.8666 53.4042 84.0387 53.4345 84.2412C53.4447 84.312 53.475 84.3728 53.5155 84.4133C53.556 84.4537 53.6066 84.474 53.6572 84.474C53.7079 84.474 53.7585 84.4537 53.799 84.4234C53.8395 84.393 53.8698 84.3525 53.8901 84.2918C53.8901 84.2513 53.9103 84.2108 53.8901 84.1703C53.8901 84.1399 53.8698 84.1096 53.8496 84.059C53.8293 84.0185 53.8192 83.9982 53.8091 83.9679C53.8091 83.9274 53.8091 83.897 53.8091 83.8565C53.8395 83.7857 53.8901 83.7148 53.9609 83.6642C54.0419 83.6136 54.1533 83.5832 54.3152 83.5427C54.5278 83.5022 54.6999 83.5427 54.8112 83.6642C54.9023 83.7553 54.9631 83.9172 55.0035 84.1298C55.044 84.393 55.0137 84.5955 54.9023 84.7574C54.7809 84.9295 54.5885 85.0409 54.3051 85.0814C54.2342 85.0814 54.1836 85.0814 54.1533 85.0814C54.1128 85.1016 54.0925 85.132 54.1026 85.1826C54.1026 85.2231 54.1431 85.2433 54.1937 85.2433C54.2342 85.2636 54.295 85.2433 54.3557 85.2231L54.3861 85.2129Z" fill="white"/>
<path d="M57.2396 85.0608C57.108 85.1519 56.946 85.2228 56.774 85.2633C56.5513 85.3139 56.3387 85.2633 56.1464 85.1317C55.9338 84.9798 55.7819 84.7369 55.701 84.4028C55.6301 84.0688 55.6605 83.7854 55.8022 83.5323C55.954 83.2691 56.1868 83.1072 56.5108 83.0363C56.8752 82.9553 57.1687 83.0262 57.4117 83.2489C57.685 83.5019 57.8976 83.9575 58.0393 84.6154C58.1608 85.1317 58.1101 85.5771 57.8874 85.9719C57.6951 86.3261 57.4117 86.5387 57.0473 86.6197C56.8752 86.6602 56.7233 86.6501 56.5715 86.5995C56.4095 86.5488 56.3083 86.4476 56.2678 86.3059C56.2476 86.235 56.2476 86.1642 56.2881 86.1034C56.3286 86.0528 56.3691 86.0123 56.4399 85.9921C56.5006 85.982 56.5614 85.982 56.612 85.9921C56.6727 86.0225 56.7132 86.063 56.7335 86.1338L56.7638 86.2452C56.7942 86.3464 56.8246 86.4071 56.8651 86.4375C56.9258 86.4881 57.027 86.4881 57.189 86.4679C57.4016 86.4172 57.5534 86.235 57.6243 85.9111C57.7052 85.5872 57.6951 85.1722 57.5939 84.6762V84.6357C57.5028 84.8078 57.3813 84.9495 57.2396 85.0608ZM56.1059 83.5019C56.0451 83.6943 56.0451 83.9473 56.1261 84.2713C56.197 84.5547 56.278 84.7673 56.3893 84.8887C56.5209 85.0305 56.693 85.0811 56.9157 85.0305C57.0574 84.99 57.1789 84.9292 57.3003 84.8179C57.4319 84.6863 57.5129 84.5547 57.5433 84.3927C57.4522 84.0283 57.3509 83.7348 57.2295 83.5323C57.0371 83.2185 56.8043 83.097 56.5209 83.1679H56.4804C56.2982 83.2084 56.1767 83.3197 56.116 83.5019H56.1059Z" fill="white"/>
<path d="M268.628 27.6348V34.67H300.941V38.3951H268.628V42.2113V45.4303V47.8091V52.921V54.4495H308.278V47.8091H277.736V45.4303H308.278V41.1181V38.3951V34.67V31.6939V27.6348H268.628Z" fill="#005BAC"/>
<path d="M300.445 64.4411V56.8896H292.42V63.2972C291.105 62.8721 289.728 62.3559 288.261 61.6473C288.261 61.6473 287.107 61.1209 285.184 60.554V56.8998H277.655V59.2178C274.518 59.0154 270.945 59.228 267.241 60.3617V68.0954C267.241 68.0954 278.748 63.2365 291.236 69.0874C291.236 69.0874 303.927 72.4582 309.675 67.3969V60.4629C309.675 60.4629 306.7 64.0463 300.456 64.4411H300.445Z" fill="#005BAC"/>
<path d="M245.665 42.3129C245.665 50.3603 239.138 56.8894 231.092 56.8894C223.047 56.8894 216.52 50.3603 216.52 42.3129C216.52 34.2654 223.047 27.7363 231.092 27.7363C239.138 27.7363 245.665 34.2654 245.665 42.3129Z" fill="#005BAC"/>
<path d="M248.751 28.5254V63.1244C245.24 63.3572 239.481 63.3066 233.875 61.2517C233.875 61.2517 224.362 58.6705 215.527 61.353V68.2971C215.527 68.2971 225.344 65.7158 233.571 68.0035C233.571 68.0035 249.642 72.994 256.665 66.5155V28.5254H248.741H248.751Z" fill="#005BAC"/>
<path d="M242.518 39.6301H236.466V33.2832H230.323V39.6301H223.391V45.6834H230.323V51.433C230.323 51.433 231.811 46.4729 236.466 46.0782C236.466 46.0782 243.206 45.4911 242.518 39.6301Z" fill="white"/>
<path d="M346.744 46.6755H343.263C344.579 44.7623 345.378 42.4442 345.378 39.9338C345.378 33.4149 340.156 28.1309 333.72 28.1309C327.283 28.1309 322.061 33.4149 322.061 39.9338C322.061 42.4442 322.851 44.7623 324.177 46.6755H319.815V53.5183H331.271V58.4784H338.527V53.5183H346.744V46.6755ZM333.72 35.1154C336.341 35.1154 338.476 37.2614 338.476 39.9237C338.476 42.5859 336.341 44.742 333.72 44.742C331.099 44.742 328.953 42.5859 328.953 39.9237C328.953 37.2614 331.078 35.1154 333.72 35.1154Z" fill="#005BAC"/>
<path d="M350.469 29.123V52.4253H347.038V58.6709H350.469H358.797V29.123H350.469Z" fill="#005BAC"/>
<path d="M327.648 60.9481V56.6865H320.301V68.8843C320.301 68.8843 328.822 64.6226 340.976 69.4815C340.976 69.4815 352.139 73.8443 359 67.1027V60.7558C359 60.7558 351.653 67.1027 339.61 62.3349C339.61 62.3349 333.143 58.5693 327.658 60.9481H327.648Z" fill="#005BAC"/>
<path d="M157.924 35.2877V28.8193H117.069V35.2877H123.354V49.1556H117.069V55.8467H157.924V49.1556H151.326V35.2877H157.924ZM143.705 49.1556H130.974V35.2877H143.705V49.1556Z" fill="#005BAC"/>
<path d="M143.857 65.4016V58.1943H135.629V62.0612C135.629 62.0612 122.888 59.1661 116.674 62.4256V70.4629C116.674 70.4629 129.648 64.8854 137.258 70.2402C137.258 70.2402 149.686 76.5567 160.636 68.8231V61.383C160.636 61.383 153.876 66.4443 143.857 65.4016Z" fill="#005BAC"/>
<path d="M193.091 29.1431H183.487C183.487 29.1431 183.446 29.133 183.426 29.1228V25.9443H175.624V29.1431H166.04V35.0952H169.319C168.61 36.5933 168.185 38.2433 168.185 40.0046C168.185 46.3717 173.357 51.5343 179.722 51.5343C186.088 51.5343 191.259 46.3717 191.259 40.0046C191.259 38.2433 190.844 36.5933 190.126 35.0952H193.101V29.1431H193.091ZM184.772 40.0046C184.772 42.7985 182.515 45.0659 179.712 45.0659C176.909 45.0659 174.652 42.7985 174.652 40.0046C174.652 37.6157 176.312 35.6215 178.538 35.0952H180.876C183.102 35.6215 184.762 37.6157 184.762 40.0046H184.772Z" fill="#005BAC"/>
<path d="M208.524 35.9854V29.3652H196.592V50.2684C195.206 49.7521 193.728 49.4383 192.17 49.4383C185.177 49.4383 179.499 55.107 179.499 62.1118C179.499 69.1167 185.177 74.7853 192.17 74.7853C199.163 74.7853 204.435 69.4507 204.779 62.7597C204.789 62.5471 204.84 62.3345 204.84 62.1118C204.84 61.8891 204.789 61.6867 204.779 61.4741V35.9955H208.534L208.524 35.9854ZM191.866 66.6569C189.205 66.6569 187.029 64.4906 187.029 61.8183C187.029 59.1459 189.194 56.9797 191.866 56.9797C194.184 56.9797 196.127 58.6195 196.592 60.7959V62.7496H196.612C196.177 64.9765 194.224 66.6569 191.866 66.6569Z" fill="#005BAC"/>
<path d="M127.715 4.79918V5.78108C127.715 8.12952 126.45 9.85036 123.92 10.9436C122.058 11.7635 119.65 12.219 116.695 12.3V10.3666C119.437 10.316 121.522 9.90097 122.949 9.13166C124.184 8.47369 124.811 7.63351 124.811 6.60101H117.008V4.78906H127.726L127.715 4.79918ZM132.168 12.7758C133.535 13.6261 134.213 14.7193 134.213 16.0353C134.213 17.3512 133.535 18.4546 132.168 19.3454C130.913 20.1552 129.426 20.5601 127.705 20.5601C125.985 20.5601 124.497 20.1552 123.253 19.3454C121.937 18.4748 121.279 17.3715 121.279 16.0353C121.279 14.6991 121.937 13.6261 123.253 12.7758C124.497 11.9761 125.975 11.5813 127.705 11.5813C129.436 11.5813 130.913 11.9761 132.168 12.7758ZM125.206 14.1626C124.447 14.6687 124.072 15.2963 124.072 16.0251C124.072 16.754 124.447 17.4018 125.206 17.9079C125.944 18.4141 126.795 18.6773 127.756 18.6773C128.717 18.6773 129.578 18.4242 130.306 17.9079C131.065 17.4018 131.44 16.7742 131.44 16.0251C131.44 15.2761 131.065 14.6687 130.306 14.1626C129.578 13.6666 128.727 13.4236 127.756 13.4236C126.784 13.4236 125.944 13.6666 125.206 14.1626ZM132.209 6.03414V4.80931H134.911V11.7028H132.209V10.5286H128.373V8.75712H132.209V7.85621H128.373V6.04426H132.209V6.03414Z" fill="#005BAC"/>
<path d="M148.077 10.4874C147.338 10.0622 146.721 9.5156 146.245 8.85763C145.567 9.76867 144.575 10.4671 143.27 10.9834C142.167 11.4288 141.033 11.6616 139.88 11.7021V9.76866C141.661 9.55609 142.946 8.98923 143.736 8.0377C144.403 7.25826 144.737 6.17514 144.758 4.80859H147.652C147.642 6.16502 147.976 7.23802 148.674 8.0377C149.474 8.98923 150.769 9.55609 152.55 9.74842V11.449C154.048 11.6515 155.293 12.1475 156.284 12.937C157.367 13.7873 157.904 14.8097 157.904 15.9941C157.904 17.3404 157.226 18.464 155.859 19.3548C154.574 20.1747 153.066 20.5897 151.336 20.5897C149.605 20.5897 148.107 20.1747 146.863 19.3548C145.517 18.464 144.849 17.3404 144.849 15.9941C144.849 14.7692 145.405 13.7266 146.519 12.8561C147.561 12.0564 148.856 11.5705 150.415 11.3883C149.555 11.1858 148.765 10.8822 148.077 10.4874ZM148.836 14.0505C148.067 14.587 147.672 15.2349 147.672 15.9941C147.672 16.7533 148.057 17.3707 148.836 17.887C149.575 18.4134 150.435 18.6765 151.386 18.6765C152.338 18.6765 153.218 18.4134 153.967 17.887C154.736 17.3606 155.131 16.733 155.131 15.9941C155.131 15.2551 154.746 14.5971 153.967 14.0505C153.228 13.5545 152.368 13.3116 151.386 13.3116C150.405 13.3116 149.575 13.5545 148.836 14.0505ZM158.723 9.22204V11.7122H156.021V4.80859H158.723V7.37973H161.466V9.23217H158.723V9.22204Z" fill="#005BAC"/>
<path d="M182.495 14.7397V19.7606H179.793V16.5517H164.279V14.7397H172.061V12.9987H163.55V11.1867H183.224V12.9987H174.723V14.7397H182.495ZM165.878 9.99224C165.331 9.99224 164.947 9.89102 164.694 9.68857C164.41 9.48611 164.279 9.13182 164.279 8.63582V4.83984H166.981V5.68002H179.793V4.83984H182.495V8.63582C182.495 9.13182 182.353 9.47599 182.08 9.68857C181.837 9.89102 181.442 9.99224 180.896 9.99224H165.878ZM166.981 8.22079H179.793V7.38061H166.981V8.22079Z" fill="#005BAC"/>
<path d="M205.741 4.79883V6.61077H191.361V10.8521H205.751V12.6641H198.526V17.0877H207.037V18.9401H187.363V17.0877H195.864V12.6641H190.217C189.66 12.6641 189.256 12.5629 189.013 12.3503C188.75 12.158 188.618 11.8239 188.618 11.338V4.79883H205.751H205.741Z" fill="#005BAC"/>
</svg>
