<svg xmlns="http://www.w3.org/2000/svg" xml:space="preserve" width="500" height="157.14999" viewBox="0 0 500 157.14999"><defs><clipPath id="a" clipPathUnits="userSpaceOnUse"><path d="M0 500h500V0H0Z"/></clipPath></defs><g clip-path="url(#a)" transform="matrix(1.15875 0 0 -1.15875 -39.688 368.263)"><g style="fill:#016b93;fill-opacity:1"><path d="M0 0c-4.11 0-7.46 3.35-7.46 7.46 0 4.12 3.35 7.46 7.46 7.46 4.12 0 7.47-3.34 7.47-7.46C7.47 3.35 4.12 0 0 0m17.48 22.34H3.33v5.41h-7v-5.41h-14.14v-7h5.69a14.365 14.365 0 0 1-2.34-7.88C-14.46-.51-7.97-7 0-7 7.98-7 14.47-.51 14.47 7.46c0 2.91-.86 5.61-2.34 7.88h5.35z" style="fill:#016b93;fill-opacity:1;fill-rule:nonzero;stroke:none" transform="translate(249.56 242.475)"/></g><g style="fill:#016b93;fill-opacity:1"><path d="M0 0v-42.12h-7v11.47h-7.78v7H-7v3.04h-7.78v7H-7V0Z" style="fill:#016b93;fill-opacity:1;fill-rule:nonzero;stroke:none" transform="translate(281.58 269.335)"/></g><g style="fill:#016b93;fill-opacity:1"><path d="M0 0h-33.356a5.555 5.555 0 0 0-5.55 5.549v12.505h7V7H0Z" style="fill:#016b93;fill-opacity:1;fill-rule:nonzero;stroke:none" transform="translate(282.72 213.143)"/></g><g style="fill:#016b93;fill-opacity:1"><path d="M0 0v-55.96h-7v32.68h-5.65v-32.68h-7v11.9c-4.45-.63-9.94-.8-15.86-.8-2.31 0-4.69.02-7.09.06-3.81.05-6.9 3.19-6.9 6.99v34.57h24.16v-7H-42.5v-27.57c8.46-.11 17.12-.13 22.85.83V0h7v-16.28H-7V0Z" style="fill:#016b93;fill-opacity:1;fill-rule:nonzero;stroke:none" transform="translate(343.75 268.445)"/></g><g style="fill:#016b93;fill-opacity:1"><path d="M0 0c-3.7 0-6.72 3.01-6.72 6.72 0 3.7 3.02 6.71 6.72 6.71 3.7 0 6.72-3.01 6.72-6.71C6.72 3.01 3.7 0 0 0m17.47 20.85H3.33v5.41h-7v-5.41h-14.15v-7h6.11a13.55 13.55 0 0 1-2.01-7.13C-13.72-.85-7.56-7 0-7 7.56-7 13.72-.85 13.72 6.72c0 2.61-.73 5.05-2.01 7.13h5.76z" style="fill:#016b93;fill-opacity:1;fill-rule:nonzero;stroke:none" transform="translate(370.92 243.965)"/></g><g style="fill:#016b93;fill-opacity:1"><path d="M0 0c-3.399 0-6.271-2.17-6.271-4.74 0-2.569 2.872-4.74 6.271-4.74s6.271 2.171 6.271 4.74C6.271-2.17 3.399 0 0 0m0-16.48c-7.318 0-13.271 5.267-13.271 11.74S-7.318 7 0 7C7.317 7 13.271 1.733 13.271-4.74S7.317-16.48 0-16.48" style="fill:#016b93;fill-opacity:1;fill-rule:nonzero;stroke:none" transform="translate(433.671 263.296)"/></g><g style="fill:#016b93;fill-opacity:1"><path d="M0 0h-7v14.738h-32.094v7H0Z" style="fill:#016b93;fill-opacity:1;fill-rule:nonzero;stroke:none" transform="translate(401.645 212.187)"/></g><g style="fill:#016b93;fill-opacity:1"><path d="M0 0h8.33v-7H0v-13.02h-7v31.78h7z" style="fill:#016b93;fill-opacity:1;fill-rule:nonzero;stroke:none" transform="translate(401.64 257.335)"/></g><g style="fill:#016b93;fill-opacity:1"><path d="M0 0v-44.73h-7v6.48h-12.42v7H-7V0Z" style="fill:#016b93;fill-opacity:1;fill-rule:nonzero;stroke:none" transform="translate(465.09 269.095)"/></g><g style="fill:#016b93;fill-opacity:1"><path d="M0 0h-17.4v-7.68h-7V0h-14.5v7H0Z" style="fill:#016b93;fill-opacity:1;fill-rule:nonzero;stroke:none" transform="translate(453.6 239.015)"/></g><path d="M0 0h-31.132c-2.984 0-5.413 2.265-5.413 5.048v9.442h7V7H0Z" style="fill:#016b93;fill-opacity:1;fill-rule:nonzero;stroke:none" transform="translate(465.75 212.548)"/><g style="fill:#016b93;fill-opacity:1"><path d="M0 0c-1.79 0-3.24 1.45-3.24 3.23A3.24 3.24 0 0 0 0 6.47 3.235 3.235 0 0 0 0 0m8.52 10.17H1.66v2.6h-3.5v-2.6H-8.7v-3.5h2.92a6.615 6.615 0 0 1-.96-3.44C-6.74-.48-3.72-3.5 0-3.5c3.71 0 6.73 3.02 6.73 6.73 0 1.26-.34 2.43-.95 3.44h2.74z" style="fill:#016b93;fill-opacity:1;fill-rule:nonzero;stroke:none" transform="translate(171.89 257.555)"/></g><g style="fill:#016b93;fill-opacity:1"><path d="M0 0v-3.5h-4.02v-6.31h-3.5V5.7h3.5V0Z" style="fill:#016b93;fill-opacity:1;fill-rule:nonzero;stroke:none" transform="translate(190.94 264.075)"/></g><g style="fill:#016b93;fill-opacity:1"><path d="M0 0h-3.5v7.148h-15.616v3.5H0Z" style="fill:#016b93;fill-opacity:1;fill-rule:nonzero;stroke:none" transform="translate(186.919 242.008)"/></g><g style="fill:#016b93;fill-opacity:1"><path d="M0 0v-3.5c-.03-11.49-1.4-15.07-1.56-15.45l-3.23 1.34c.01.03 1.27 3.37 1.29 14.11h-16.52V0Z" style="fill:#016b93;fill-opacity:1;fill-rule:nonzero;stroke:none" transform="translate(214.64 268.115)"/></g><g style="fill:#016b93;fill-opacity:1"><path d="M0 0v-3.5h-25.09V0h6.32v10.08h3.5V0h2.69v10.08h3.5V0Z" style="fill:#016b93;fill-opacity:1;fill-rule:nonzero;stroke:none" transform="translate(216.84 248.205)"/></g><g style="fill:#016b93;fill-opacity:1"><path d="M0 0c-1.66-.29-5.3-.29-6.96 0v2.45H0Zm9.19 10.17V5.41H3.5v3.82H0V5.95h-6.96v3.28h-3.5V-1.05c0-1.93 2.26-2.28 3.11-2.42 1.04-.16 2.41-.25 3.87-.25 5.02 0 6.98.75 6.98 2.67v2.96h5.69v-5.78h3.5v14.04z" style="fill:#016b93;fill-opacity:1;fill-rule:nonzero;stroke:none" transform="translate(175.2 229.095)"/></g><g style="fill:#016b93;fill-opacity:1"><path d="M0 0c-2.36-.35-8.27-.35-10.63 0v1.73H0Zm0 7.97V5.23h-10.63v2.74h-3.5v-9.16c0-1.96 2.37-2.21 3.78-2.35 1.34-.14 3.13-.22 5.04-.22 7.54 0 8.81.79 8.81 2.57v9.16z" style="fill:#016b93;fill-opacity:1;fill-rule:nonzero;stroke:none" transform="translate(184.07 215.295)"/></g><g style="fill:#016b93;fill-opacity:1"><path d="M0 0h-15.055c-1.475 0-2.675 1.262-2.675 2.813v6.482h3.5V3.5H0Z" style="fill:#016b93;fill-opacity:1;fill-rule:nonzero;stroke:none" transform="translate(214.818 211.981)"/></g><path d="M214.37 219.434h-3.5v20.911h3.5z" style="fill:#016b93;fill-opacity:1;fill-rule:nonzero;stroke:none"/><g style="fill:#016b93;fill-opacity:1"><path d="M0 0c-2.192 0-3.975-1.917-3.975-4.274S-2.192-8.548 0-8.548s3.975 1.917 3.975 4.274S2.192 0 0 0m0-12.048c-4.122 0-7.475 3.487-7.475 7.774S-4.122 3.5 0 3.5 7.475.013 7.475-4.274 4.122-12.048 0-12.048" style="fill:#016b93;fill-opacity:1;fill-rule:nonzero;stroke:none" transform="translate(198.905 235.703)"/></g><path d="M0 0v-30.48h-22.58V0c0 14.03 1.53 27.02 4.36 38.61 1.82 7.49 4.18 14.4 7.01 20.64 2.83-6.26 5.16-13.12 6.94-20.45C-1.35 26.87.13 13.72 0 0" style="fill:#016b93;fill-opacity:1;fill-rule:nonzero;stroke:none" transform="translate(98.71 212.67)"/><path d="M0 0c0-25.49-17.94-46.79-41.88-51.97.13 13.72-1.35 26.87-4.27 38.8-1.78 7.33-4.11 14.19-6.94 20.45 7.82 17.24 19.23 29.37 32.86 34.46C-7.91 32.01 0 16.93 0 0" style="fill:#76a5db;fill-opacity:1;fill-rule:nonzero;stroke:none" transform="translate(140.59 264.64)"/><path d="M0 0c-13.63-5.09-25.04-17.22-32.86-34.46C-40.5-17.55-51.78-5.08-65.87 0c9.05 7.16 20.49 11.43 32.93 11.43C-20.49 11.43-9.05 7.16 0 0" style="fill:#8fdcf6;fill-opacity:1;fill-rule:nonzero;stroke:none" transform="translate(120.36 306.38)"/><path d="M0 0c-2.83-6.24-5.19-13.15-7.01-20.64-2.83-11.59-4.36-24.58-4.36-38.61-23.94 5.18-41.88 26.48-41.88 51.97 0 16.92 7.91 32 20.23 41.73v.01h.01C-18.92 29.38-7.64 16.91 0 0" style="fill:#02afda;fill-opacity:1;fill-rule:nonzero;stroke:none" transform="translate(87.5 271.92)"/></g></svg>